<?xml version="1.0" standalone="no"?>
<!DOCTYPE svg PUBLIC "-//W3C//DTD SVG 20010904//EN"
 "http://www.w3.org/TR/2001/REC-SVG-20010904/DTD/svg10.dtd">
<svg version="1.0" xmlns="http://www.w3.org/2000/svg"
 width="64.000000pt" height="64.000000pt" viewBox="0 0 64.000000 64.000000"
 preserveAspectRatio="xMidYMid meet">

<g transform="translate(0.000000,64.000000) scale(0.100000,-0.100000)"
fill="#000000" stroke="none">
<path d="M296 611 c-10 -11 -42 -30 -72 -43 l-55 -23 6 -45 c10 -63 47 -132
96 -174 24 -20 46 -36 50 -36 13 0 26 25 33 61 7 41 29 64 68 74 23 6 29 15
38 62 7 30 10 56 8 57 -1 1 -27 13 -55 26 -29 13 -60 32 -70 42 -20 23 -26 23
-47 -1z"/>
<path d="M390 390 c-12 -12 -20 -33 -20 -55 0 -22 8 -43 20 -55 27 -27 83 -27
110 0 12 12 20 33 20 55 0 22 -8 43 -20 55 -12 12 -33 20 -55 20 -22 0 -43 -8
-55 -20z m90 -28 c0 -18 -49 -54 -65 -48 -9 3 -13 10 -10 16 4 6 10 8 14 5 5
-2 16 4 26 15 19 21 35 26 35 12z"/>
<path d="M45 203 c-11 -11 -15 -26 -11 -44 3 -17 0 -32 -9 -39 -10 -8 -15 -31
-15 -61 l0 -49 70 0 70 0 0 49 c0 31 -5 53 -15 61 -9 8 -13 21 -9 37 4 16 0
30 -11 43 -22 24 -48 25 -70 3z m63 -40 c-4 -24 -52 -24 -56 0 -3 13 3 17 28
17 25 0 31 -4 28 -17z"/>
<path d="M526 204 c-18 -18 -21 -50 -5 -59 6 -5 3 -13 -10 -22 -16 -11 -21
-25 -21 -64 l0 -49 70 0 70 0 0 49 c0 39 -5 53 -21 64 -13 9 -16 17 -10 22 29
17 -2 75 -39 75 -10 0 -26 -7 -34 -16z m62 -41 c-4 -24 -52 -24 -56 0 -3 13 3
17 28 17 25 0 31 -4 28 -17z"/>
</g>
</svg>
